<?xml version="1.0" standalone="no"?>
<!DOCTYPE svg PUBLIC "-//W3C//DTD SVG 20010904//EN"
 "http://www.w3.org/TR/2001/REC-SVG-20010904/DTD/svg10.dtd">
<svg version="1.0" xmlns="http://www.w3.org/2000/svg"
 width="700.000000pt" height="700.000000pt" viewBox="0 0 700.000000 700.000000"
 preserveAspectRatio="xMidYMid meet">
<metadata>
Created by potrace 1.11, written by Peter Selinger 2001-2013
</metadata>
<g transform="translate(0.000000,700.000000) scale(0.100000,-0.100000)"
fill="#000000" stroke="none">
<path d="M3238 5995 c-2 -2 -48 -6 -103 -9 -55 -4 -116 -8 -135 -11 -19 -2
-55 -6 -80 -9 -62 -7 -142 -18 -160 -21 -8 -1 -35 -6 -60 -10 -25 -3 -58 -9
-75 -11 -126 -20 -392 -86 -545 -136 -589 -191 -1058 -464 -1420 -827 -138
-139 -146 -148 -240 -271 -174 -227 -316 -520 -371 -765 -6 -27 -13 -59 -15
-70 -5 -21 -9 -50 -23 -155 -9 -72 -7 -370 4 -440 61 -400 224 -746 504 -1070
69 -80 231 -241 296 -295 27 -22 53 -44 59 -50 36 -33 290 -215 301 -215 2 0
34 -19 72 -42 37 -23 69 -42 70 -43 4 -2 -40 -145 -67 -220 -40 -110 -138
-315 -192 -401 -78 -124 -184 -255 -394 -484 -23 -25 -57 -63 -75 -85 -19 -22
-37 -42 -40 -45 -16 -13 -40 -74 -45 -112 -8 -61 36 -144 91 -176 40 -23 90
-25 190 -8 17 3 62 10 100 17 189 31 650 166 810 238 22 10 72 31 110 47 324
133 699 362 1003 612 l126 103 60 -5 c291 -27 839 -28 1006 -2 14 2 54 7 90
11 258 25 641 111 915 205 243 84 556 225 708 318 37 23 72 42 77 42 6 0 10 5
10 10 0 6 4 10 9 10 20 0 239 156 356 254 59 49 289 277 331 328 237 285 398
602 459 901 2 10 7 27 10 37 3 9 7 35 10 56 2 22 7 57 10 79 10 59 13 383 4
430 -4 22 -10 62 -14 89 -23 176 -100 402 -204 601 -40 76 -157 259 -184 287
-6 7 -32 40 -57 73 -63 84 -298 318 -400 398 -47 37 -94 74 -105 83 -152 120
-460 294 -735 416 -115 51 -364 136 -560 192 -154 44 -486 106 -640 121 -14 1
-61 6 -105 10 -44 4 -91 9 -105 12 -29 4 -637 12 -642 8z m622 -509 c25 -2 68
-7 95 -10 28 -4 77 -9 110 -12 33 -3 63 -8 66 -10 3 -1 28 -6 55 -9 27 -4 58
-8 69 -10 630 -118 1201 -371 1600 -709 332 -282 556 -633 620 -971 27 -145
27 -363 -1 -510 -34 -183 -123 -389 -242 -560 -279 -402 -775 -753 -1343 -950
-104 -37 -256 -85 -276 -90 -10 -2 -54 -12 -98 -24 -86 -21 -258 -57 -315 -65
-19 -2 -66 -9 -105 -15 -66 -9 -96 -12 -290 -31 -83 -7 -604 -5 -640 3 -11 3
-54 8 -95 11 -41 4 -91 9 -110 11 -27 3 -133 14 -170 17 -23 2 -31 -4 -110
-76 -153 -139 -381 -315 -540 -415 -47 -30 -108 -69 -136 -87 -47 -30 -417
-215 -457 -228 -13 -4 -5 19 32 92 120 237 160 349 282 787 21 77 39 145 39
151 0 7 -95 67 -210 134 -365 211 -497 307 -680 490 -118 117 -133 135 -206
235 -87 119 -142 215 -205 360 -30 70 -66 197 -85 305 -10 58 -12 303 -3 362
17 110 20 122 35 181 100 390 414 784 854 1073 173 113 404 231 595 304 61 23
119 46 130 50 48 19 259 85 304 95 9 2 75 17 146 34 72 16 148 32 170 35 22 4
69 11 105 17 119 19 199 27 330 35 58 4 107 8 109 10 5 4 512 -4 571 -10z"/>
</g>
</svg>
